<svg xmlns="http://www.w3.org/2000/svg" width="900" height="600" viewBox="0 0 900 600">
  <defs>
    <linearGradient id="bg" x1="0" y1="0" x2="1" y2="1">
      <stop offset="0%" stop-color="#1f2937"/>
      <stop offset="55%" stop-color="#334155"/>
      <stop offset="100%" stop-color="#0f172a"/>
    </linearGradient>
    <filter id="shadow" x="-20%" y="-20%" width="140%" height="140%">
      <feDropShadow dx="0" dy="12" stdDeviation="14" flood-color="#000000" flood-opacity="0.35"/>
    </filter>
  </defs>

  <rect width="900" height="600" rx="0" fill="url(#bg)"/>
  <circle cx="760" cy="90" r="115" fill="#38bdf8" opacity="0.18"/>
  <circle cx="115" cy="500" r="150" fill="#f97316" opacity="0.16"/>

  <g filter="url(#shadow)">
    <rect x="90" y="90" width="720" height="420" rx="34" fill="#ffffff" opacity="0.96"/>
  </g>

  <text x="130" y="165" font-family="Arial, Helvetica, sans-serif" font-size="44" font-weight="700" fill="#111827">Subreddit Pulse</text>
  <text x="132" y="205" font-family="Arial, Helvetica, sans-serif" font-size="21" fill="#475569">AI-powered Reddit trend discovery</text>

  <rect x="130" y="250" width="180" height="40" rx="20" fill="#e0f2fe"/>
  <text x="156" y="277" font-family="Arial, Helvetica, sans-serif" font-size="18" font-weight="700" fill="#0369a1">Reddit topics</text>

  <rect x="330" y="250" width="155" height="40" rx="20" fill="#ffedd5"/>
  <text x="358" y="277" font-family="Arial, Helvetica, sans-serif" font-size="18" font-weight="700" fill="#c2410c">Sentiment</text>

  <rect x="505" y="250" width="155" height="40" rx="20" fill="#dcfce7"/>
  <text x="536" y="277" font-family="Arial, Helvetica, sans-serif" font-size="18" font-weight="700" fill="#15803d">Insights</text>

  <line x1="150" y1="380" x2="740" y2="380" stroke="#cbd5e1" stroke-width="3"/>
  <circle cx="210" cy="380" r="15" fill="#38bdf8"/>
  <circle cx="345" cy="340" r="15" fill="#f97316"/>
  <circle cx="500" cy="365" r="15" fill="#22c55e"/>
  <circle cx="650" cy="310" r="15" fill="#8b5cf6"/>
  <polyline points="210,380 345,340 500,365 650,310" fill="none" stroke="#334155" stroke-width="5" stroke-linecap="round" stroke-linejoin="round"/>

  <text x="130" y="465" font-family="Arial, Helvetica, sans-serif" font-size="22" font-weight="700" fill="#111827">Tools + small model = stronger analysis</text>
</svg>